<?xml version="1.0" encoding="iso-8859-1"?>
<!-- Uploaded to: SVG Repo, www.svgrepo.com, Generator: SVG Repo Mixer Tools -->
<svg version="1.1" id="Layer_1" xmlns="http://www.w3.org/2000/svg" xmlns:xlink="http://www.w3.org/1999/xlink" 
	 viewBox="0 0 512 512" xml:space="preserve">
<path style="fill:#FF6E7A;" d="M267.688,198.315h-11.691l-20.909,149.001l20.909,149.001h11.691
	c61.157,0,110.734-49.577,110.734-110.734V309.05C378.421,247.893,328.844,198.315,267.688,198.315z"/>
<rect x="52.285" y="194.123" transform="matrix(-0.8384 -0.5451 0.5451 -0.8384 34.3431 429.7935)" style="fill:#FFBA00;" width="57.208" height="31.364"/>
<rect x="340.568" y="114.305" transform="matrix(-0.9239 -0.3827 0.3827 -0.9239 630.692 411.2738)" style="fill:#FF8E00;" width="31.364" height="57.208"/>
<rect x="127.14" y="127.224" transform="matrix(-0.3827 -0.9239 0.9239 -0.3827 83.3175 341.4835)" style="fill:#FFBA00;" width="57.208" height="31.364"/>
<rect x="415.429" y="181.209" transform="matrix(-0.5451 -0.8384 0.8384 -0.5451 490.2007 685.6135)" style="fill:#FF8E00;" width="31.364" height="57.208"/>
<path style="fill:#FFABB2;" d="M244.305,198.315c-61.157,0-110.734,49.577-110.734,110.734v76.534
	c0,61.157,49.577,110.734,110.734,110.734h11.691V198.315H244.305z"/>
<path style="fill:#FF0F4D;" d="M267.687,182.634h-11.691l-10.454,15.681l10.454,23.677c7.445,6.278,12.175,15.665,12.175,25.99
	c0,10.444-4.739,19.798-12.175,26.037l-10.454,19.612l10.454,19.699h106.743v18.304H255.996l-10.454,15.682l10.454,15.682H362.74
	V381.3H255.996l-10.454,15.828l10.454,23.483c7.436,6.239,12.175,15.594,12.175,26.037c0,10.325-4.73,19.712-12.175,25.99
	l-10.454,23.677l10.454,15.682h11.691c69.706,0,126.416-56.71,126.416-126.416v-76.535
	C394.103,239.344,337.393,182.634,267.687,182.634z M289.98,281.968c6.058-9.909,9.554-21.546,9.554-33.985
	c0-10.906-2.709-21.477-7.768-30.893c11.663,3.056,22.457,8.28,31.928,15.211h-13.531v31.363h41.023
	c3.147,5.767,5.708,11.896,7.616,18.304H289.98z M351.186,430.969h-41.023v31.363h13.531c-9.471,6.93-20.264,12.154-31.928,15.21
	c5.059-9.415,7.768-19.986,7.768-30.892c0-12.44-3.497-24.077-9.554-33.985h68.823C356.895,419.073,354.333,425.203,351.186,430.969
	z"/>
<g>
	<rect x="225.709" y="331.637" style="fill:#FF4F67;" width="30.291" height="31.363"/>
	<path style="fill:#FF4F67;" d="M237.967,480.42c-18.49-1.223-35.549-7.756-49.667-18.087h59.125v-31.363h-86.617
		c-3.147-5.767-5.708-11.896-7.617-18.304h80.996c8.296,0,15.903,2.992,21.81,7.949v-39.312h-17.053
		c-18.74,0-33.985-15.246-33.985-33.985s15.246-33.985,33.985-33.985h17.053v-39.312c-5.907,4.956-13.515,7.949-21.81,7.949H153.19
		c1.908-6.408,4.469-12.537,7.616-18.304h86.617v-31.363h-59.125c14.118-10.331,31.177-16.864,49.668-18.087
		c6.829,0.756,13.039,3.57,18.031,7.779v-39.359h-11.691c-69.706,0-126.416,56.71-126.416,126.416v76.535
		C117.89,455.29,174.601,512,244.306,512h11.691v-39.359C251.005,476.85,244.795,479.664,237.967,480.42z M149.253,362.999h13.713
		v-31.363h-13.713v-18.304h33.896c-6.058,9.909-9.554,21.546-9.554,33.985c0,12.44,3.497,24.077,9.554,33.985h-33.896V362.999z"/>
</g>
<g>
	<path style="fill:#FF8E00;" d="M269.008,36.507c3.866,3.634,5.995,8.554,5.995,13.854h31.363c0-13.845-5.788-27.225-15.879-36.709
		C281.03,4.763,268.881-0.016,255.996,0l-10.454,13.452l10.454,17.928C260.867,31.386,265.449,33.163,269.008,36.507z"/>
	<polygon style="fill:#FF8E00;" points="271.678,166.608 271.678,136.521 255.996,136.521 245.542,151.563 255.996,166.608 	"/>
	<path style="fill:#FF8E00;" d="M271.678,124.782v-24.769c0-11.725-6.091-22.465-15.682-28.564l-10.454,28.775l10.454,24.558
		H271.678z"/>
</g>
<g>
	<path style="fill:#FFBA00;" d="M237.028,49.12c0.581-9.36,8.367-17.145,17.727-17.727c0.417-0.025,0.828-0.015,1.242-0.014V0
		c-1.058,0.001-2.118,0.024-3.184,0.09c-25.275,1.568-45.518,21.811-47.087,47.087c-1.377,22.187,12.227,42.971,33.081,50.541
		c0.902,0.327,1.509,1.249,1.509,2.295v24.769h15.682V71.449c-2.019-1.284-4.182-2.374-6.487-3.212
		C241.514,65.335,236.499,57.652,237.028,49.12z"/>
	<rect x="240.314" y="136.525" style="fill:#FFBA00;" width="15.682" height="30.087"/>
</g>
</svg>