<?xml version="1.0" encoding="iso-8859-1"?>
<!-- Uploaded to: SVG Repo, www.svgrepo.com, Generator: SVG Repo Mixer Tools -->
<svg version="1.1" id="Layer_1" xmlns="http://www.w3.org/2000/svg" xmlns:xlink="http://www.w3.org/1999/xlink" 
	 viewBox="0 0 512 512" xml:space="preserve">
<path style="fill:#48CFAD;" d="M344.779,173.537l-0.797-0.219c-11.484-3.094-15.375-6.047-20.484-8
	c-18.14-6.906-22.858-11.891-24.077-14.25c-0.031-0.078-0.078-0.172-0.109-0.266l-0.156-21.062l-43.031-0.5l-43.031,0.5
	l-0.141,21.062c-0.047,0.094-0.078,0.188-0.125,0.266c-1.203,2.359-5.921,7.344-24.062,14.25c-5.125,1.953-9,4.906-20.5,8
	l-0.781,0.219c-10.469,3.453-17.5,13.156-17.5,24.109v72.311h212.292v-72.311C362.278,186.693,355.232,176.99,344.779,173.537z"/>
<path style="fill:#DBAFA5;" d="M199.719,160.646l56.405,35.015l56.531-34.953c-9.359-4.531-12.312-7.844-13.234-9.641
	c-0.031-0.078-0.078-0.172-0.109-0.266l-0.156-21.062l-43.031-0.5l-43.031,0.5l-0.141,21.062c-0.047,0.094-0.078,0.188-0.125,0.266
	C211.922,152.85,208.984,156.146,199.719,160.646z"/>
<path style="fill:#A85D5D;" d="M403.121,238.52c-2.031-2.469-5.047-3.891-8.25-3.891H117.143c-3.203,0-6.234,1.422-8.25,3.891
	c-2.031,2.484-2.844,5.719-2.219,8.859l21.328,106.638c1,5,5.375,8.578,10.468,8.578h235.074c5.077,0,9.452-3.578,10.452-8.578
	l21.328-106.638C405.949,244.239,405.152,241.004,403.121,238.52z"/>
<path style="fill:#965353;" d="M352.107,277.285h-191.95c-5.891,0-10.672,4.766-10.672,10.656v213.293
	c0,5.891,4.781,10.672,10.672,10.672h191.95c5.891,0,10.671-4.781,10.671-10.672V287.941
	C362.778,282.051,357.998,277.285,352.107,277.285z"/>
<g>
	<rect x="245.34" y="277.29" style="fill:#7F4545;" width="21.327" height="234.62"/>
	<path style="fill:#7F4545;" d="M319.999,512l-0.703-85.326c0-0.188,0-0.375,0.016-0.562c0.469-10.891,10.171-31.516,43.467-31.516
		v21.328c-19.155,0-21.796,8.781-22.155,11.172l0.703,84.717L319.999,512z"/>
	<path style="fill:#7F4545;" d="M192.017,373.268c5.891,0,10.671-4.781,10.671-10.672v-85.311H181.36v85.311
		C181.36,368.486,186.126,373.268,192.017,373.268z"/>
	<path style="fill:#7F4545;" d="M213.344,479.906c-5.89,0-10.656,4.781-10.656,10.672v21.328h21.328v-21.328
		C224.016,484.688,219.234,479.906,213.344,479.906z"/>
</g>
<path style="fill:#EAC6BB;" d="M315.843,88.96c0,38.796-36.984,74.499-59.718,74.499c-22.718,0-59.702-35.703-59.702-74.499
	c0-38.812,26.733-64.405,59.702-64.405C289.108,24.555,315.843,50.148,315.843,88.96z"/>
<path style="fill:#656D78;" d="M309.14,32.993H202.485c-5.875,0-10.656,4.766-10.656,10.656v37.046
	c0,4.844,3.266,9.078,7.968,10.312c0.766,0.203,19.437,4.984,56.077,4.984s55.203-4.781,55.984-4.984
	c4.688-1.234,7.953-5.468,7.953-10.312V43.648C319.812,37.758,315.03,32.993,309.14,32.993z"/>
<path style="fill:#434A54;" d="M354.107,21.586L258.124,0.258c-1.515-0.344-3.093-0.344-4.625,0l-95.982,21.328
	c-4.875,1.094-8.344,5.422-8.344,10.406c0,5,3.469,9.328,8.344,10.421L253.5,63.742c0.766,0.172,1.547,0.25,2.312,0.25
	c0.781,0,1.562-0.078,2.312-0.25l95.983-21.328c4.891-1.094,8.358-5.421,8.358-10.421C362.466,27.008,358.998,22.68,354.107,21.586z
	"/>
</svg>